<?xml version="1.0" encoding="UTF-8" standalone="no"?>
<svg
   width="200px"
   height="200px"
   viewBox="-20.48 -20.48 552.96 552.96"
   fill="#4472C4"
   stroke="#4472C4"
   stroke-width="12.8"
   version="1.1"
   id="svg14"
   sodipodi:docname="icon.svg"
   inkscape:export-filename="/home/fyy/repos/safelinks-decoder/images/icon128.png"
   inkscape:export-xdpi="61.439999"
   inkscape:export-ydpi="61.439999"
   inkscape:version="1.1.2 (0a00cf5339, 2022-02-04)"
   xmlns:inkscape="http://www.inkscape.org/namespaces/inkscape"
   xmlns:sodipodi="http://sodipodi.sourceforge.net/DTD/sodipodi-0.dtd"
   xmlns="http://www.w3.org/2000/svg"
   xmlns:svg="http://www.w3.org/2000/svg">
  <defs
     id="defs18" />
  <sodipodi:namedview
     id="namedview16"
     pagecolor="#ffffff"
     bordercolor="#000000"
     borderopacity="0.25"
     inkscape:pageshadow="2"
     inkscape:pageopacity="0.0"
     inkscape:pagecheckerboard="0"
     showgrid="false"
     inkscape:zoom="4.365"
     inkscape:cx="99.885452"
     inkscape:cy="100"
     inkscape:window-width="2560"
     inkscape:window-height="1376"
     inkscape:window-x="0"
     inkscape:window-y="0"
     inkscape:window-maximized="1"
     inkscape:current-layer="svg14" />
  <g
     id="SVGRepo_bgCarrier"
     stroke-width="0">
    <rect
       x="-20.48"
       y="-20.48"
       width="552.96"
       height="552.96"
       rx="82.944"
       fill="#f0f0f0"
       strokewidth="0"
       id="rect2" />
  </g>
  <g
     id="SVGRepo_iconCarrier">
    <polygon
       fill="var(--ci-primary-color, #4472C4)"
       points="288 496 320 496 320 368 448 368 448 336 288 336 288 496"
       class="ci-primary"
       id="polygon5" />
    <polygon
       fill="var(--ci-primary-color, #4472C4)"
       points="224 176 224 16 192 16 192 144 64 144 64 176 224 176"
       class="ci-primary"
       id="polygon7" />
    <path
       fill="var(--ci-primary-color, #4472C4)"
       d="M78.708,434.573,77.429,433.3a100.478,100.478,0,0,1,0-142.1l75.2-75.2H107.372L54.8,268.57a132.478,132.478,0,0,0,0,187.35l1.278,1.278a132.628,132.628,0,0,0,187.352,0l4.57-4.57V407.373l-27.2,27.2A100.591,100.591,0,0,1,78.708,434.573Z"
       class="ci-primary"
       id="path9" />
    <path
       fill="var(--ci-primary-color, #4472C4)"
       d="M457.2,56.08,455.922,54.8c-51.653-51.655-135.7-51.653-187.352,0L264,59.372v45.255l27.2-27.2a100.591,100.591,0,0,1,142.095,0l1.279,1.278a100.478,100.478,0,0,1,0,142.1l-75.2,75.2h45.253L457.2,243.43a132.478,132.478,0,0,0,0-187.35Z"
       class="ci-primary"
       id="path11" />
  </g>
</svg>
